<svg xmlns="http://www.w3.org/2000/svg" viewBox="0 0 1024 1024" role="img" aria-label="Prism">
  <rect width="1024" height="1024" fill="#FFFFFF"/>
  <g transform="translate(215.04 215.04) scale(0.59392)" fill="#1A1A19">
    <path d="M194.176 98.717L98.717 194.176L337.041 432.5L0 432.5L0 567.5L337.041 567.5L98.717 805.824L194.176 901.283L565.195 530.264A42.8 42.8 0 0 0 565.195 469.736Z"/>
    <path d="M583.014 321.526L648.21 386.721A160.2 160.2 0 0 1 674.356 421.103L901.283 194.176L805.824 98.7169Z"/><path d="M583.014 678.474L805.824 901.283L901.283 805.824L674.356 578.897A160.2 160.2 0 0 1 648.21 613.279Z"/><path d="M1000 567.5L1000 432.5L680.216 432.5A160.2 160.2 0 0 1 680.216 567.5Z"/><path d="M432.5 0L432.5 171.012L567.5 306.012L567.5 0Z"/><path d="M567.5 693.988L432.5 828.988L432.5 1000L567.5 1000Z"/>
  </g>
</svg>
