<svg width="24" height="24" viewBox="0 0 24 24" fill="none" xmlns="http://www.w3.org/2000/svg">
<g clip-path="url(#clip0_40_2063)">
<path fill-rule="evenodd" clip-rule="evenodd" d="M11.5 3C14.776 3 17.5614 5.10039 18.5831 8.02797C21.6232 8.32114 24 10.883 24 14C24 17.3137 21.3137 20 18 20H5C2.23858 20 0 17.7614 0 15C0 12.5773 1.72308 10.557 4.0106 10.0979C4.21955 6.14271 7.49277 3 11.5 3ZM4.4042 12.0588L5.92593 11.7533L6.00781 10.2034C6.16095 7.30465 8.56199 5 11.5 5C13.8993 5 15.9446 6.53745 16.6947 8.68694L17.1166 9.89583L18.3911 10.0187C20.4157 10.214 22 11.9232 22 14C22 16.2091 20.2091 18 18 18H5C3.34315 18 2 16.6569 2 15C2 13.5487 3.03258 12.3341 4.4042 12.0588Z" fill="currentColor"/>
</g>
<defs>
<clipPath id="clip0_40_2063">
<rect width="24" height="24" fill="white"/>
</clipPath>
</defs>
</svg>
